<?xml version="1.0" encoding="UTF-8"?>
<!DOCTYPE svg PUBLIC "-//W3C//DTD SVG 1.1//EN" "http://www.w3.org/Graphics/SVG/1.1/DTD/svg11.dtd">
<svg xmlns="http://www.w3.org/2000/svg" version="1.1" width="220px" height="132px" style="shape-rendering:geometricPrecision; text-rendering:geometricPrecision; image-rendering:optimizeQuality; fill-rule:evenodd; clip-rule:evenodd" xmlns:xlink="http://www.w3.org/1999/xlink">
<g><path style="opacity:0.088" fill="#fefaec" d="M 80.5,1.5 C 80.5,14.5 80.5,27.5 80.5,40.5C 77.8333,40.5 75.1667,40.5 72.5,40.5C 72.5,40.1667 72.5,39.8333 72.5,39.5C 74.7638,38.7814 77.0971,38.448 79.5,38.5C 79.1714,25.9887 79.5048,13.6554 80.5,1.5 Z"/></g>
<g><path style="opacity:1" fill="#fbe495" d="M 147.5,51.5 C 143.885,51.845 140.552,51.1783 137.5,49.5C 136.167,47.8333 136.167,46.1667 137.5,44.5C 138.833,43.8333 139.833,42.8333 140.5,41.5C 143.43,40.701 146.43,40.3677 149.5,40.5C 149.5,30.5 149.5,20.5 149.5,10.5C 145.085,10.8606 141.085,12.1939 137.5,14.5C 135.102,14.2594 133.102,14.9261 131.5,16.5C 129.102,16.2594 127.102,16.9261 125.5,18.5C 122.171,18.9985 119.005,19.9985 116,21.5C 115.5,36.4963 115.333,51.4963 115.5,66.5C 115.573,68.0269 114.906,69.0269 113.5,69.5C 110.365,71.0233 107.032,71.69 103.5,71.5C 102.833,70.1667 101.833,69.1667 100.5,68.5C 99.0698,66.5453 99.4031,64.8786 101.5,63.5C 102.833,62.8333 103.833,61.8333 104.5,60.5C 107.167,60.5 109.833,60.5 112.5,60.5C 112.5,44.8333 112.5,29.1667 112.5,13.5C 117.929,12.2532 122.929,10.2532 127.5,7.5C 130.01,7.94649 132.01,7.27983 133.5,5.5C 137.044,5.8676 140.044,4.8676 142.5,2.5C 145.313,2.45193 147.979,1.78527 150.5,0.5C 151.666,16.156 151.833,31.8227 151,47.5C 149.624,48.7051 148.458,50.0384 147.5,51.5 Z"/></g>
<g><path style="opacity:0.611" fill="#fef4d5" d="M 148.5,-0.5 C 149.833,-0.5 151.167,-0.5 152.5,-0.5C 153.594,14.8761 153.761,30.5428 153,46.5C 152.338,47.9839 151.504,49.3172 150.5,50.5C 149.833,50.5 149.5,50.8333 149.5,51.5C 148.833,51.5 148.167,51.5 147.5,51.5C 148.458,50.0384 149.624,48.7051 151,47.5C 151.833,31.8227 151.666,16.156 150.5,0.5C 147.979,1.78527 145.313,2.45193 142.5,2.5C 144.5,1.5 146.5,0.5 148.5,-0.5 Z"/></g>
<g><path style="opacity:1" fill="#fce598" d="M 82.5,3.5 C 86.1047,8.77402 90.438,13.4407 95.5,17.5C 95.5394,18.5832 95.8728,19.5832 96.5,20.5C 96.0431,21.2975 95.3764,21.6309 94.5,21.5C 93.1667,20.8333 92.1667,19.8333 91.5,18.5C 91.0269,17.0937 90.0269,16.427 88.5,16.5C 88.0269,15.0937 87.0269,14.427 85.5,14.5C 85.44,13.9569 85.1067,13.6236 84.5,13.5C 83.5012,24.4798 83.1679,35.4798 83.5,46.5C 83.2671,48.0618 82.6005,49.3951 81.5,50.5C 80.8333,50.5 80.5,50.8333 80.5,51.5C 79.8333,51.5 79.1667,51.5 78.5,51.5C 74.8849,51.845 71.5516,51.1783 68.5,49.5C 68.3398,47.8008 68.5065,46.1341 69,44.5C 70.3756,43.2949 71.5423,41.9616 72.5,40.5C 75.1667,40.5 77.8333,40.5 80.5,40.5C 80.5,27.5 80.5,14.5 80.5,1.5C 80.56,0.956913 80.8933,0.62358 81.5,0.5C 82.3857,1.32496 82.719,2.32496 82.5,3.5 Z"/></g>
<g><path style="opacity:0.773" fill="#fdf4d6" d="M 82.5,3.5 C 85.5,6.16667 88.5,8.83333 91.5,11.5C 91.5,12.1667 91.8333,12.5 92.5,12.5C 93.925,13.922 94.925,15.5887 95.5,17.5C 90.438,13.4407 86.1047,8.77402 82.5,3.5 Z"/></g>
<g><path style="opacity:0.867" fill="#fdf0c8" d="M 142.5,2.5 C 140.044,4.8676 137.044,5.8676 133.5,5.5C 136.215,3.92809 139.215,2.92809 142.5,2.5 Z"/></g>
<g><path style="opacity:0.847" fill="#fef2cf" d="M 133.5,5.5 C 132.01,7.27983 130.01,7.94649 127.5,7.5C 129.214,6.26162 131.214,5.59495 133.5,5.5 Z"/></g>
<g><path style="opacity:0.092" fill="#fefaed" d="M 113.5,11.5 C 112.5,11.5 111.5,11.5 110.5,11.5C 110.918,10.7784 111.584,10.2784 112.5,10C 109.167,9.83333 105.833,9.66667 102.5,9.5C 98.7614,9.51362 95.428,10.1803 92.5,11.5C 92.1667,11.5 91.8333,11.5 91.5,11.5C 91.5,10.5 91.5,9.5 91.5,8.5C 98.8409,8.33368 106.174,8.50034 113.5,9C 114.598,9.76971 114.598,10.603 113.5,11.5 Z"/></g>
<g><path style="opacity:0.821" fill="#fef0c5" d="M 64.5,8.5 C 68.8461,8.33432 73.1794,8.50098 77.5,9C 78.8333,10 78.8333,11 77.5,12C 73.1667,12.6667 68.8333,12.6667 64.5,12C 63.3157,10.8545 63.3157,9.68787 64.5,8.5 Z"/></g>
<g><path style="opacity:0.845" fill="#fdecb7" d="M 110.5,11.5 C 104.69,12.4896 98.69,12.8229 92.5,12.5C 92.5,12.1667 92.5,11.8333 92.5,11.5C 95.428,10.1803 98.7614,9.51362 102.5,9.5C 105.833,9.66667 109.167,9.83333 112.5,10C 111.584,10.2784 110.918,10.7784 110.5,11.5 Z"/></g>
<g><path style="opacity:0.812" fill="#fdf2ce" d="M 127.5,7.5 C 122.929,10.2532 117.929,12.2532 112.5,13.5C 112.5,13.1667 112.5,12.8333 112.5,12.5C 113.167,12.5 113.5,12.1667 113.5,11.5C 118.109,9.96369 122.776,8.63035 127.5,7.5 Z"/></g>
<g><path style="opacity:0.088" fill="#fefaee" d="M 112.5,12.5 C 112.5,12.8333 112.5,13.1667 112.5,13.5C 112.5,29.1667 112.5,44.8333 112.5,60.5C 109.833,60.5 107.167,60.5 104.5,60.5C 106.438,58.8372 108.772,58.1706 111.5,58.5C 111.17,42.9909 111.504,27.6576 112.5,12.5 Z"/></g>
<g><path style="opacity:0.055" fill="#fdfaf0" d="M 85.5,14.5 C 84.8333,25.1667 84.1667,35.8333 83.5,46.5C 83.1679,35.4798 83.5012,24.4798 84.5,13.5C 85.1067,13.6236 85.44,13.9569 85.5,14.5 Z"/></g>
<g><path style="opacity:0.137" fill="#fdf8e7" d="M 85.5,14.5 C 87.0269,14.427 88.0269,15.0937 88.5,16.5C 86.9731,16.573 85.9731,15.9063 85.5,14.5 Z"/></g>
<g><path style="opacity:0.212" fill="#fef5db" d="M 137.5,14.5 C 135.786,15.7384 133.786,16.405 131.5,16.5C 133.102,14.9261 135.102,14.2594 137.5,14.5 Z"/></g>
<g><path style="opacity:0.204" fill="#fdf8e6" d="M 88.5,16.5 C 90.0269,16.427 91.0269,17.0937 91.5,18.5C 89.9731,18.573 88.9731,17.9063 88.5,16.5 Z"/></g>
<g><path style="opacity:0.275" fill="#fdf4d7" d="M 131.5,16.5 C 129.786,17.7384 127.786,18.405 125.5,18.5C 127.102,16.9261 129.102,16.2594 131.5,16.5 Z"/></g>
<g><path style="opacity:0.961" fill="#fef2cd" d="M 95.5,17.5 C 98.3349,20.3398 100.002,23.8398 100.5,28C 100.37,29.0588 99.8699,29.8921 99,30.5C 97.9514,27.8133 96.4514,25.48 94.5,23.5C 94.5,22.8333 94.5,22.1667 94.5,21.5C 95.3764,21.6309 96.0431,21.2975 96.5,20.5C 95.8728,19.5832 95.5394,18.5832 95.5,17.5 Z"/></g>
<g><path style="opacity:0.82" fill="#fdedb9" d="M 77.5,23.5 C 73.6273,25.4302 69.294,26.0969 64.5,25.5C 63.2264,24.8106 63.2264,23.9772 64.5,23C 69.0204,22.1864 73.3537,22.353 77.5,23.5 Z"/></g>
<g><path style="opacity:0.833" fill="#fdedbb" d="M 109.5,23.5 C 107.365,25.369 104.698,26.0356 101.5,25.5C 100.226,24.8106 100.226,23.9772 101.5,23C 104.367,22.1993 107.034,22.3659 109.5,23.5 Z"/></g>
<g><path style="opacity:0.074" fill="#fefaf0" d="M 125.5,18.5 C 122.921,20.0252 120.254,21.3586 117.5,22.5C 116.504,36.9905 116.171,51.6572 116.5,66.5C 116.167,66.5 115.833,66.5 115.5,66.5C 115.333,51.4963 115.5,36.4963 116,21.5C 119.005,19.9985 122.171,18.9985 125.5,18.5 Z"/></g>
<g><path style="opacity:0.851" fill="#fce8a6" d="M 146.5,23.5 C 147.833,24.1667 147.833,24.8333 146.5,25.5C 109.167,24.8333 109.167,24.1667 146.5,23.5 Z"/></g>
<g><path style="opacity:0.071" fill="#fefaef" d="M 77.5,23.5 C 78.404,24.209 78.7373,25.209 78.5,26.5C 73.6367,26.8195 68.97,26.4861 64.5,25.5C 69.294,26.0969 73.6273,25.4302 77.5,23.5 Z"/></g>
<g><path style="opacity:0.083" fill="#fefaee" d="M 93.5,23.5 C 93.8333,23.5 94.1667,23.5 94.5,23.5C 94.5,24.5 94.5,25.5 94.5,26.5C 91.5,26.5 88.5,26.5 85.5,26.5C 85.5,25.1667 85.5,23.8333 85.5,22.5C 88.3854,22.1936 91.0521,22.5269 93.5,23.5 Z"/></g>
<g><path style="opacity:0.835" fill="#fce8a4" d="M 93.5,23.5 C 92.8478,24.7251 91.6811,25.3917 90,25.5C 88.8333,25.1667 87.6667,24.8333 86.5,24.5C 88.7427,23.5258 91.076,23.1924 93.5,23.5 Z"/></g>
<g><path style="opacity:0.077" fill="#fefaef" d="M 109.5,23.5 C 110.404,24.209 110.737,25.209 110.5,26.5C 107.287,26.81 104.287,26.4767 101.5,25.5C 104.698,26.0356 107.365,25.369 109.5,23.5 Z"/></g>
<g><path style="opacity:0.075" fill="#fefbf0" d="M 117.5,22.5 C 127.348,22.1729 137.014,22.5062 146.5,23.5C 109.167,24.1667 109.167,24.8333 146.5,25.5C 137.014,26.4938 127.348,26.8271 117.5,26.5C 117.5,25.1667 117.5,23.8333 117.5,22.5 Z"/></g>
<g><path style="opacity:0.082" fill="#fdfaf0" d="M 64.5,37.5 C 66.9664,36.3659 69.633,36.1993 72.5,37C 73.5981,37.7697 73.5981,38.603 72.5,39.5C 71.8333,39.5 71.1667,39.5 70.5,39.5C 70.6107,38.8826 70.944,38.3826 71.5,38C 69.1902,37.5034 66.8568,37.3367 64.5,37.5 Z"/></g>
<g><path style="opacity:0.824" fill="#fdeebe" d="M 64.5,37.5 C 66.8568,37.3367 69.1902,37.5034 71.5,38C 70.944,38.3826 70.6107,38.8826 70.5,39.5C 70.5,39.8333 70.5,40.1667 70.5,40.5C 68.4727,40.6621 66.4727,40.4955 64.5,40C 63.2264,39.0228 63.2264,38.1894 64.5,37.5 Z"/></g>
<g><path style="opacity:0.208" fill="#fef9ea" d="M 85.5,36.5 C 93.8333,36.5 102.167,36.5 110.5,36.5C 110.5,37.8333 110.5,39.1667 110.5,40.5C 102.167,40.5 93.8333,40.5 85.5,40.5C 85.5,39.1667 85.5,37.8333 85.5,36.5 Z"/></g>
<g><path style="opacity:0.919" fill="#fce7a1" d="M 86.5,37.5 C 94.1955,37.1692 101.862,37.5025 109.5,38.5C 105.667,38.8333 101.833,39.1667 98,39.5C 93.771,39.4898 89.9377,38.8232 86.5,37.5 Z"/></g>
<g><path style="opacity:0.224" fill="#fdf8e5" d="M 140.5,41.5 C 133.018,40.508 125.352,40.1746 117.5,40.5C 117.5,39.1667 117.5,37.8333 117.5,36.5C 125.833,36.5 134.167,36.5 142.5,36.5C 142.281,37.675 142.614,38.675 143.5,39.5C 145.042,38.2532 146.542,38.2532 148,39.5C 148.832,30.1489 148.665,20.8155 147.5,11.5C 144.273,12.9094 140.94,13.9094 137.5,14.5C 141.085,12.1939 145.085,10.8606 149.5,10.5C 149.5,20.5 149.5,30.5 149.5,40.5C 146.43,40.3677 143.43,40.701 140.5,41.5 Z"/></g>
<g><path style="opacity:0.933" fill="#fce7a1" d="M 118.5,37.5 C 125.841,37.3337 133.174,37.5003 140.5,38C 136.847,39.1343 133.014,39.6343 129,39.5C 125.098,39.4877 121.598,38.821 118.5,37.5 Z"/></g>
<g><path style="opacity:0.278" fill="#fdf7e3" d="M 140.5,41.5 C 139.833,42.8333 138.833,43.8333 137.5,44.5C 137.5,42.5 138.5,41.5 140.5,41.5 Z"/></g>
<g><path style="opacity:0.263" fill="#fef8e5" d="M 70.5,40.5 C 71.1667,40.5 71.8333,40.5 72.5,40.5C 71.5423,41.9616 70.3756,43.2949 69,44.5C 68.5065,46.1341 68.3398,47.8008 68.5,49.5C 66.904,46.0991 67.5707,43.0991 70.5,40.5 Z"/></g>
<g><path style="opacity:0.404" fill="#fdf6de" d="M 68.5,49.5 C 71.5516,51.1783 74.8849,51.845 78.5,51.5C 76.0521,52.4731 73.3854,52.8064 70.5,52.5C 70.5,51.8333 70.1667,51.5 69.5,51.5C 69.1667,50.8333 68.8333,50.1667 68.5,49.5 Z"/></g>
<g><path style="opacity:0.373" fill="#fdf6de" d="M 137.5,50.5 C 137.5,50.1667 137.5,49.8333 137.5,49.5C 140.552,51.1783 143.885,51.845 147.5,51.5C 145.052,52.4731 142.385,52.8064 139.5,52.5C 139.5,51.8333 139.167,51.5 138.5,51.5C 138.5,50.8333 138.167,50.5 137.5,50.5 Z"/></g>
<g><path style="opacity:0.294" fill="#fef6dc" d="M 69.5,51.5 C 70.1667,51.5 70.5,51.8333 70.5,52.5C 70.5852,53.9953 69.9185,54.9953 68.5,55.5C 66.9291,54.6906 65.2624,54.3573 63.5,54.5C 63.8351,50.4889 65.8351,49.4889 69.5,51.5 Z"/></g>
<g><path style="opacity:0.356" fill="#fdf7e2" d="M 81.5,50.5 C 91.015,50.1731 100.348,50.5064 109.5,51.5C 110.404,52.209 110.737,53.209 110.5,54.5C 100.145,54.8319 89.8119,54.4986 79.5,53.5C 79.8627,52.8165 80.1961,52.1499 80.5,51.5C 81.1667,51.5 81.5,51.1667 81.5,50.5 Z"/></g>
<g><path style="opacity:0.961" fill="#fce8a5" d="M 109.5,51.5 C 105.217,52.8266 100.551,53.4933 95.5,53.5C 90.8333,53.3333 86.1667,53.1667 81.5,53C 90.666,51.529 99.9993,51.029 109.5,51.5 Z"/></g>
<g><path style="opacity:0.368" fill="#fdf7e4" d="M 137.5,50.5 C 138.167,50.5 138.5,50.8333 138.5,51.5C 139.167,51.5 139.5,51.8333 139.5,52.5C 132.576,54.4633 125.243,55.1299 117.5,54.5C 117.263,53.209 117.596,52.209 118.5,51.5C 124.645,50.5098 130.978,50.1765 137.5,50.5 Z"/></g>
<g><path style="opacity:0.973" fill="#fce8a5" d="M 118.5,51.5 C 125.014,51.0446 131.347,51.5446 137.5,53C 134.333,53.1667 131.167,53.3333 128,53.5C 124.424,53.4848 121.258,52.8182 118.5,51.5 Z"/></g>
<g><path style="opacity:0.365" fill="#fdf7e1" d="M 150.5,50.5 C 152.099,50.2322 153.432,50.5655 154.5,51.5C 155.404,52.209 155.737,53.209 155.5,54.5C 153.076,54.8076 150.743,54.4742 148.5,53.5C 148.863,52.8165 149.196,52.1499 149.5,51.5C 150.167,51.5 150.5,51.1667 150.5,50.5 Z"/></g>
<g><path style="opacity:0.975" fill="#fce8a6" d="M 154.5,51.5 C 153.796,53.3442 152.463,53.8442 150.5,53C 151.563,51.8118 152.897,51.3118 154.5,51.5 Z"/></g>
<g><path style="opacity:0.357" fill="#fdf7e3" d="M 104.5,60.5 C 103.833,61.8333 102.833,62.8333 101.5,63.5C 101.5,61.5 102.5,60.5 104.5,60.5 Z"/></g>
<g><path style="opacity:0.014" fill="#fefcf7" d="M 154.5,65.5 C 142.087,65.1874 129.753,65.5208 117.5,66.5C 123.295,65.1704 129.462,64.5038 136,64.5C 142.343,64.5004 148.509,64.8338 154.5,65.5 Z"/></g>
<g><path style="opacity:0.627" fill="#fdf0c6" d="M 97.5,65.5 C 92.3762,66.8286 86.8762,67.4952 81,67.5C 75.1238,67.4952 69.6238,66.8286 64.5,65.5C 75.5,64.1667 86.5,64.1667 97.5,65.5 Z"/></g>
<g><path style="opacity:0.43" fill="#fef5d8" d="M 64.5,65.5 C 69.6238,66.8286 75.1238,67.4952 81,67.5C 86.8762,67.4952 92.3762,66.8286 97.5,65.5C 98.7965,66.8488 98.6298,68.1821 97,69.5C 85.9146,68.5126 74.748,68.1793 63.5,68.5C 63.2627,67.209 63.596,66.209 64.5,65.5 Z"/></g>
<g><path style="opacity:0.435" fill="#fdefc3" d="M 154.5,65.5 C 155.404,66.209 155.737,67.209 155.5,68.5C 142.124,69.1476 129.124,68.4809 116.5,66.5C 116.833,66.5 117.167,66.5 117.5,66.5C 129.753,65.5208 142.087,65.1874 154.5,65.5 Z"/></g>
<g><path style="opacity:0.024" fill="#fdf8e8" d="M 100.5,68.5 C 101.833,69.1667 102.833,70.1667 103.5,71.5C 101.5,71.5 100.5,70.5 100.5,68.5 Z"/></g>
<g><path style="opacity:0.141" fill="#fef9e9" d="M 113.5,69.5 C 112.942,70.7899 111.942,71.6232 110.5,72C 107.961,72.7958 105.628,72.6291 103.5,71.5C 107.032,71.69 110.365,71.0233 113.5,69.5 Z"/></g>
<g><path style="opacity:0.034" fill="#f4efe1" d="M 15.5,89.5 C 15.5,87.8333 15.5,86.1667 15.5,84.5C 14.1667,84.5 12.8333,84.5 11.5,84.5C 12.531,83.7515 13.6976,83.0848 15,82.5C 16.7279,84.8194 16.8946,87.1527 15.5,89.5 Z"/></g>
<g><path style="opacity:0.455" fill="#e8dec3" d="M 50.5,84.5 C 48.1667,84.5 45.8333,84.5 43.5,84.5C 43.5,85.8333 43.5,87.1667 43.5,88.5C 45.4147,88.2155 47.0813,88.5489 48.5,89.5C 46.5,89.5 44.5,89.5 42.5,89.5C 42.5,87.5 42.5,85.5 42.5,83.5C 45.3854,83.1936 48.0521,83.5269 50.5,84.5 Z"/></g>
<g><path style="opacity:0.485" fill="#e5d9b9" d="M 132.5,88.5 C 132.5,87.1667 132.5,85.8333 132.5,84.5C 122.833,84.5 113.167,84.5 103.5,84.5C 103.5,85.8333 103.5,87.1667 103.5,88.5C 102.549,87.0813 102.216,85.4147 102.5,83.5C 112.833,83.5 123.167,83.5 133.5,83.5C 133.784,85.4147 133.451,87.0813 132.5,88.5 Z"/></g>
<g><path style="opacity:0.489" fill="#e8ddc2" d="M 165.5,84.5 C 170.975,83.5111 176.642,83.1778 182.5,83.5C 182.784,85.4147 182.451,87.0813 181.5,88.5C 181.5,87.1667 181.5,85.8333 181.5,84.5C 176.167,84.5 170.833,84.5 165.5,84.5 Z"/></g>
<g><path style="opacity:0.484" fill="#e9dfc4" d="M 194.5,85.5 C 191.728,84.2329 189.061,84.2329 186.5,85.5C 185.957,85.44 185.624,85.1067 185.5,84.5C 187,84.1667 188.5,83.8333 190,83.5C 191.986,83.5687 193.486,84.2353 194.5,85.5 Z"/></g>
<g><path style="opacity:0.456" fill="#e5daba" d="M 207.5,84.5 C 210.024,83.1997 212.691,83.1997 215.5,84.5C 215.376,85.1067 215.043,85.44 214.5,85.5C 212.393,84.5318 210.059,84.1984 207.5,84.5 Z"/></g>
<g><path style="opacity:0.987" fill="#d6c28e" d="M 17.5,82.5 C 20.2165,82.6785 22.8832,83.1785 25.5,84C 26.7588,86.672 26.0921,88.8386 23.5,90.5C 21.5914,89.6518 19.5914,89.3184 17.5,89.5C 17.5,87.1667 17.5,84.8333 17.5,82.5 Z"/></g>
<g><path style="opacity:0.996" fill="#cbb372" d="M 50.5,84.5 C 54.4287,85.4308 57.0953,87.7641 58.5,91.5C 58.5,94.8333 58.5,98.1667 58.5,101.5C 57.0953,105.236 54.4287,107.569 50.5,108.5C 48.1667,108.5 45.8333,108.5 43.5,108.5C 43.5,107.167 43.5,105.833 43.5,104.5C 45.4147,104.784 47.0813,104.451 48.5,103.5C 52.1705,100.751 53.3372,97.0841 52,92.5C 50.8549,91.3636 49.6883,90.3636 48.5,89.5C 47.0813,88.5489 45.4147,88.2155 43.5,88.5C 43.5,87.1667 43.5,85.8333 43.5,84.5C 45.8333,84.5 48.1667,84.5 50.5,84.5 Z"/></g>
<g><path style="opacity:0.033" fill="#fcfbf7" d="M 163.5,83.5 C 164.167,90.1667 164.833,96.8333 165.5,103.5C 165.5,103.833 165.5,104.167 165.5,104.5C 164.833,110.833 164.167,117.167 163.5,123.5C 163.5,123.167 163.5,122.833 163.5,122.5C 163.5,109.833 163.5,97.1667 163.5,84.5C 163.5,84.1667 163.5,83.8333 163.5,83.5 Z"/></g>
<g><path style="opacity:0.996" fill="#ceb779" d="M 11.5,84.5 C 12.8333,84.5 14.1667,84.5 15.5,84.5C 15.5,86.1667 15.5,87.8333 15.5,89.5C 11.5919,92.705 11.5919,96.0383 15.5,99.5C 15.5,101.5 15.5,103.5 15.5,105.5C 6.10934,103.045 3.27601,97.0454 7,87.5C 8.12901,85.8588 9.62901,84.8588 11.5,84.5 Z"/></g>
<g><path style="opacity:0.406" fill="#ede4ce" d="M 73.5,108.5 C 72.5076,100.684 72.1743,92.6841 72.5,84.5C 70.5,84.5 68.5,84.5 66.5,84.5C 66.5,92.8333 66.5,101.167 66.5,109.5C 65.507,101.016 65.1736,92.3494 65.5,83.5C 68.1667,83.5 70.8333,83.5 73.5,83.5C 73.5,91.8333 73.5,100.167 73.5,108.5 Z"/></g>
<g><path style="opacity:0.998" fill="#c9af6b" d="M 73.5,108.5 C 73.8961,111.721 75.2295,114.388 77.5,116.5C 78.7196,118.282 79.3862,120.282 79.5,122.5C 78.1667,122.5 76.8333,122.5 75.5,122.5C 69.794,120.101 66.794,115.768 66.5,109.5C 66.5,101.167 66.5,92.8333 66.5,84.5C 68.5,84.5 70.5,84.5 72.5,84.5C 72.1743,92.6841 72.5076,100.684 73.5,108.5 Z"/></g>
<g><path style="opacity:0.465" fill="#e1d4b0" d="M 96.5,84.5 C 96.1667,84.5 95.8333,84.5 95.5,84.5C 93.8333,84.5 92.1667,84.5 90.5,84.5C 90.5,92.1667 90.5,99.8333 90.5,107.5C 90.1667,107.5 89.8333,107.5 89.5,107.5C 89.5,99.5 89.5,91.5 89.5,83.5C 92.0593,83.1984 94.3926,83.5318 96.5,84.5 Z"/></g>
<g><path style="opacity:1" fill="#ccb474" d="M 132.5,88.5 C 129.038,89.4816 125.371,89.815 121.5,89.5C 121.521,100.626 121.521,111.626 121.5,122.5C 119.5,122.5 117.5,122.5 115.5,122.5C 115.828,110.988 115.495,99.6544 114.5,88.5C 110.732,89.7866 107.065,89.7866 103.5,88.5C 103.5,87.1667 103.5,85.8333 103.5,84.5C 113.167,84.5 122.833,84.5 132.5,84.5C 132.5,85.8333 132.5,87.1667 132.5,88.5 Z"/></g>
<g><path style="opacity:0.999" fill="#d1bb80" d="M 95.5,84.5 C 95.8333,84.5 96.1667,84.5 96.5,84.5C 97.8581,93.3778 97.6915,102.378 96,111.5C 95.0935,117.233 91.9268,120.899 86.5,122.5C 85.1667,122.5 83.8333,122.5 82.5,122.5C 82.4551,119.923 83.4551,117.923 85.5,116.5C 87.582,113.848 88.9154,110.848 89.5,107.5C 89.8333,107.5 90.1667,107.5 90.5,107.5C 92.0434,101.938 93.0434,94.9376 93.5,86.5C 94.3315,94.1451 94.8315,101.812 95,109.5C 95.4997,101.173 95.6664,92.84 95.5,84.5 Z"/></g>
<g><path style="opacity:1" fill="#c4a960" d="M 95.5,84.5 C 95.6664,92.84 95.4997,101.173 95,109.5C 94.8315,101.812 94.3315,94.1451 93.5,86.5C 93.0434,94.9376 92.0434,101.938 90.5,107.5C 90.5,99.8333 90.5,92.1667 90.5,84.5C 92.1667,84.5 93.8333,84.5 95.5,84.5 Z"/></g>
<g><path style="opacity:0.633" fill="#d9c99a" d="M 140.5,83.5 C 142.833,83.5 145.167,83.5 147.5,83.5C 147.5,96.8333 147.5,110.167 147.5,123.5C 145.167,123.5 142.833,123.5 140.5,123.5C 140.5,110.167 140.5,96.8333 140.5,83.5 Z"/></g>
<g><path style="opacity:1" fill="#c5ab64" d="M 141.5,84.5 C 143.167,84.5 144.833,84.5 146.5,84.5C 146.5,97.1667 146.5,109.833 146.5,122.5C 144.833,122.5 143.167,122.5 141.5,122.5C 141.5,109.833 141.5,97.1667 141.5,84.5 Z"/></g>
<g><path style="opacity:0.443" fill="#e3d7b5" d="M 163.5,83.5 C 163.5,83.8333 163.5,84.1667 163.5,84.5C 161.5,84.5 159.5,84.5 157.5,84.5C 157.5,97.1667 157.5,109.833 157.5,122.5C 159.5,122.5 161.5,122.5 163.5,122.5C 163.5,122.833 163.5,123.167 163.5,123.5C 161.167,123.5 158.833,123.5 156.5,123.5C 156.5,110.167 156.5,96.8333 156.5,83.5C 158.833,83.5 161.167,83.5 163.5,83.5 Z"/></g>
<g><path style="opacity:1" fill="#c6ab64" d="M 163.5,84.5 C 163.5,97.1667 163.5,109.833 163.5,122.5C 161.5,122.5 159.5,122.5 157.5,122.5C 157.5,109.833 157.5,97.1667 157.5,84.5C 159.5,84.5 161.5,84.5 163.5,84.5 Z"/></g>
<g><path style="opacity:0.997" fill="#ceb678" d="M 194.5,85.5 C 196.109,89.0541 197.442,92.7207 198.5,96.5C 198.5,97.8333 198.5,99.1667 198.5,100.5C 196.64,101.071 194.973,101.071 193.5,100.5C 190.93,95.6894 188.597,90.6894 186.5,85.5C 189.061,84.2329 191.728,84.2329 194.5,85.5 Z"/></g>
<g><path style="opacity:0.994" fill="#ccb373" d="M 207.5,84.5 C 210.059,84.1984 212.393,84.5318 214.5,85.5C 211.437,92.6259 208.104,99.6259 204.5,106.5C 203.512,111.64 203.179,116.974 203.5,122.5C 201.5,122.5 199.5,122.5 197.5,122.5C 197.5,117.833 197.5,113.167 197.5,108.5C 197.5,107.833 197.5,107.167 197.5,106.5C 198.404,105.791 198.737,104.791 198.5,103.5C 199.338,103.158 199.672,102.492 199.5,101.5C 202.167,95.8333 204.833,90.1667 207.5,84.5 Z"/></g>
<g><path style="opacity:0.976" fill="#ccb475" d="M 165.5,84.5 C 170.833,84.5 176.167,84.5 181.5,84.5C 181.5,85.8333 181.5,87.1667 181.5,88.5C 176.36,89.4881 171.026,89.8214 165.5,89.5C 165.5,87.8333 165.5,86.1667 165.5,84.5 Z"/></g>
<g><path style="opacity:0.422" fill="#ede4ce" d="M 34.5,122.5 C 33.5045,109.677 33.1712,96.6774 33.5,83.5C 36.1667,83.5 38.8333,83.5 41.5,83.5C 41.5,96.8333 41.5,110.167 41.5,123.5C 38.9407,123.802 36.6074,123.468 34.5,122.5 Z"/></g>
<g><path style="opacity:1" fill="#c6ac65" d="M 34.5,122.5 C 34.5,109.833 34.5,97.1667 34.5,84.5C 36.5,84.5 38.5,84.5 40.5,84.5C 40.5,97.1667 40.5,109.833 40.5,122.5C 38.5,122.5 36.5,122.5 34.5,122.5 Z"/></g>
<g><path style="opacity:0.496" fill="#e1d3ae" d="M 114.5,88.5 C 115.495,99.6544 115.828,110.988 115.5,122.5C 117.5,122.5 119.5,122.5 121.5,122.5C 119.393,123.468 117.059,123.802 114.5,123.5C 114.5,111.833 114.5,100.167 114.5,88.5 Z"/></g>
<g><path style="opacity:0.769" fill="#e1d1ab" d="M 58.5,91.5 C 60.9641,94.8003 60.9641,98.1336 58.5,101.5C 58.5,98.1667 58.5,94.8333 58.5,91.5 Z"/></g>
<g><path style="opacity:0.033" fill="#f9f6ef" d="M 15.5,99.5 C 16.9952,99.9887 18.3285,100.655 19.5,101.5C 18.8333,101.5 18.1667,101.5 17.5,101.5C 16.5655,102.568 16.2322,103.901 16.5,105.5C 16.1667,105.5 15.8333,105.5 15.5,105.5C 15.5,103.5 15.5,101.5 15.5,99.5 Z"/></g>
<g><path style="opacity:0.39" fill="#e8dfc3" d="M 165.5,101.5 C 170.305,100.513 175.305,100.179 180.5,100.5C 180.784,102.415 180.451,104.081 179.5,105.5C 179.5,104.167 179.5,102.833 179.5,101.5C 174.833,101.5 170.167,101.5 165.5,101.5 Z"/></g>
<g><path style="opacity:1" fill="#decca1" d="M 198.5,96.5 C 199.451,97.9187 199.784,99.5853 199.5,101.5C 198.662,101.842 198.328,102.508 198.5,103.5C 197.596,104.209 197.263,105.209 197.5,106.5C 195.204,105.267 193.87,103.267 193.5,100.5C 194.973,101.071 196.64,101.071 198.5,100.5C 198.5,99.1667 198.5,97.8333 198.5,96.5 Z"/></g>
<g><path style="opacity:0.999" fill="#cfb87c" d="M 17.5,101.5 C 18.1667,101.5 18.8333,101.5 19.5,101.5C 28.6833,104.88 30.85,110.88 26,119.5C 23.6026,121.782 20.7693,123.116 17.5,123.5C 17.3379,121.473 17.5045,119.473 18,117.5C 20.1416,116.524 21.3083,114.857 21.5,112.5C 20.2305,109.895 18.5639,107.562 16.5,105.5C 17.4345,104.432 17.7678,103.099 17.5,101.5 Z"/></g>
<g><path style="opacity:0.999" fill="#d1b97e" d="M 165.5,101.5 C 170.167,101.5 174.833,101.5 179.5,101.5C 179.5,102.833 179.5,104.167 179.5,105.5C 177.359,106.163 175.025,106.497 172.5,106.5C 169.731,106.471 167.397,105.805 165.5,104.5C 165.5,104.167 165.5,103.833 165.5,103.5C 165.5,102.833 165.5,102.167 165.5,101.5 Z"/></g>
<g><path style="opacity:0.441" fill="#eae1c8" d="M 48.5,103.5 C 47.0813,104.451 45.4147,104.784 43.5,104.5C 43.5,105.833 43.5,107.167 43.5,108.5C 45.8333,108.5 48.1667,108.5 50.5,108.5C 48.0521,109.473 45.3854,109.806 42.5,109.5C 42.5,107.5 42.5,105.5 42.5,103.5C 44.5,103.5 46.5,103.5 48.5,103.5 Z"/></g>
<g><path style="opacity:0.38" fill="#ede4ce" d="M 204.5,106.5 C 204.5,112.167 204.5,117.833 204.5,123.5C 201.833,123.5 199.167,123.5 196.5,123.5C 196.179,118.305 196.513,113.305 197.5,108.5C 197.5,113.167 197.5,117.833 197.5,122.5C 199.5,122.5 201.5,122.5 203.5,122.5C 203.179,116.974 203.512,111.64 204.5,106.5 Z"/></g>
<g><path style="opacity:0.31" fill="#efe8d6" d="M 8.5,116.5 C 7.39105,116.557 6.39105,116.89 5.5,117.5C 6.0527,115.448 7.0527,115.115 8.5,116.5 Z"/></g>
<g><path style="opacity:0.998" fill="#ccb373" d="M 8.5,116.5 C 11.0673,116.721 13.4006,117.388 15.5,118.5C 15.5,119.833 15.5,121.167 15.5,122.5C 13.1667,122.5 10.8333,122.5 8.5,122.5C 7.50838,122.672 6.84171,122.338 6.5,121.5C 5.89022,120.609 5.55688,119.609 5.5,118.5C 5.5,118.167 5.5,117.833 5.5,117.5C 6.39105,116.89 7.39105,116.557 8.5,116.5 Z"/></g>
<g><path style="opacity:0.203" fill="#ece2ca" d="M 85.5,116.5 C 83.4551,117.923 82.4551,119.923 82.5,122.5C 83.8333,122.5 85.1667,122.5 86.5,122.5C 85.0813,123.451 83.4147,123.784 81.5,123.5C 81.2011,121.396 81.5344,119.396 82.5,117.5C 83.4168,116.873 84.4168,116.539 85.5,116.5 Z"/></g>
<g><path style="opacity:0.11" fill="#f6f2e7" d="M 5.5,118.5 C 5.55688,119.609 5.89022,120.609 6.5,121.5C 4.44818,120.947 4.11484,119.947 5.5,118.5 Z"/></g>
<g><path style="opacity:0.639" fill="#decea4" d="M 77.5,116.5 C 80.0209,118.03 81.0209,120.364 80.5,123.5C 78.5853,123.784 76.9187,123.451 75.5,122.5C 76.8333,122.5 78.1667,122.5 79.5,122.5C 79.3862,120.282 78.7196,118.282 77.5,116.5 Z"/></g>
<g><path style="opacity:0.42" fill="#ede4ce" d="M 15.5,118.5 C 16.4511,119.919 16.7845,121.585 16.5,123.5C 13.6146,123.806 10.9479,123.473 8.5,122.5C 10.8333,122.5 13.1667,122.5 15.5,122.5C 15.5,121.167 15.5,119.833 15.5,118.5 Z"/></g>
</svg>
